<?xml version="1.0" standalone="no"?>
<!DOCTYPE svg PUBLIC "-//W3C//DTD SVG 20010904//EN"
 "http://www.w3.org/TR/2001/REC-SVG-20010904/DTD/svg10.dtd">
<svg version="1.0" xmlns="http://www.w3.org/2000/svg"
 width="264.000000pt" height="167.000000pt" viewBox="0 0 264.000000 167.000000"
 preserveAspectRatio="xMidYMid meet">
<metadata>
Created by potrace 1.15, written by Peter Selinger 2001-2017
</metadata>
<g transform="translate(0.000000,167.000000) scale(0.100000,-0.100000)"
fill="#000000" stroke="none">   
<path d="M47 1612 c-3 -4 297 -6 666 -5 l672 2 -130 -33 c-215 -55 -375 -127
-545 -244 -119 -82 -294 -257 -382 -382 -161 -228 -272 -540 -285 -802 l-6
-108 1277 0 1276 0 -2 788 -3 787 -1267 2 c-697 2 -1269 0 -1271 -5z m2532
-394 l-1 -393 -18 65 c-39 145 -100 264 -188 369 -75 90 -123 132 -218 196
-95 64 -167 98 -272 126 -43 12 -79 23 -81 25 -2 2 172 4 387 4 l392 0 -1
-392z m-969 -393 l0 -775 -775 0 -775 0 0 64 c0 88 16 201 46 319 108 432 410
806 809 1004 199 99 428 160 613 162 l82 1 0 -775z m176 764 c85 -15 178 -46
264 -89 296 -148 491 -438 526 -782 l6 -68 -481 0 -481 0 0 475 0 475 53 0
c29 0 80 -5 113 -11z m132 -975 c25 -16 62 -71 62 -92 0 -10 -17 -13 -70 -10
-47 2 -70 -1 -70 -8 0 -7 10 -9 25 -6 23 4 25 2 25 -38 0 -37 -2 -41 -15 -30
-8 7 -15 19 -15 26 0 8 -4 14 -10 14 -5 0 -10 -11 -10 -25 l0 -25 -110 0 -109
0 5 33 c9 47 49 112 85 138 65 46 156 56 207 23z m657 -26 c-18 -149 -70 -255
-174 -359 -104 -104 -210 -156 -358 -174 l-53 -7 0 296 0 296 296 0 296 0 -7
-52z m5 -313 l0 -225 -227 1 c-199 0 -223 2 -188 13 151 48 295 173 365 316
22 46 40 92 40 102 0 10 2 18 5 18 3 0 5 -101 5 -225z m-600 -45 l0 -180 -42
6 c-24 3 -76 21 -116 41 -108 52 -175 145 -197 276 l-6 37 181 0 180 0 0 -180z
m-260 -80 c25 -25 70 -57 100 -72 l55 -27 -127 -1 -128 0 0 127 0 127 27 -55
c15 -29 48 -74 73 -99z"/>
</g>
</svg>
